<svg width="200" height="200" viewBox="0 0 200 200" xmlns="http://www.w3.org/2000/svg">
  <!-- Gye Nyame -->
  <circle cx="100" cy="100" r="90" fill="#000"/>
  <circle cx="100" cy="100" r="70" fill="none" stroke="#fff" stroke-width="10"/>

  <!-- Sankofa -->
  <path d="M100,40 C80,40 70,60 70,80 C70,100 80,120 100,120 C120,120 130,100 130,80 C130,60 120,40 100,40 Z" fill="#000"/>
  <path d="M80,100 Q100,60 120,100" fill="none" stroke="#fff" stroke-width="10"/>

  <!-- Dwennimmen -->
  <path d="M100,10 L85,70 L115,70 L100,10 Z" fill="#000"/>
  <path d="M100,190 L85,130 L115,130 L100,190 Z" fill="#000"/>
  <path d="M40,100 L100,70 L160,100 L100,130 L40,100 Z" fill="#000"/>

  <!-- Fawohodie -->
  <rect x="50" y="50" width="100" height="100" fill="#000"/>
  <rect x="70" y="70" width="60" height="60" fill="#fff"/>

  <!-- Name - Richmond Adu -->
  <text x="50" y="190" fill="#fff" font-size="20" font-family="Arial" font-weight="bold">Richmond Adu</text>
</svg>
