<svg xmlns="http://www.w3.org/2000/svg" version="1.1" xmlns:xlink="http://www.w3.org/1999/xlink" xmlns:svgjs="http://svgjs.dev/svgjs" width="100%" height="100%" viewBox="0 0 1000 600"><rect width="1000" height="600" x="0" y="0" fill="transparent"/><g><rect width="333.3333333333333" height="333.3333333333333" rx="13.333333333333334" ry="13.333333333333334" y="280.23523403364425" fill="#396df2" transform="matrix(0.4844716057750867,0,0,0.48447160577508663,0,83.48869477894013)" x="258.01306152343744"/><path d="M304.26701136279763 372.5122557017804L344.63709420255844 372.5122557017804Q363.03469134983607 372.5122557017804 375.03817890406305 377.07532482045747Q387.04166645828997 381.6093298046207 392.97074989911874 390.90985284905804Q398.8998333399476 400.2103758934954 398.8998333399476 414.62618661237326L398.8998333399476 414.62618661237326Q398.8998333399476 426.455289359517 394.59834143189534 434.3897980818026Q390.29684952384304 442.29524266957435 383.3505213750289 447.2070814024178Q376.4041932262148 452.1189201352613 368.5278127729569 454.76375637602314L368.5278127729569 454.76375637602314L409.50824243750895 521.9019071030552L389.2796048158577 521.9019071030552L352.7169235974134 459.5593385708112L321.6473638020899 459.5593385708112L321.6473638020899 521.9019071030552L304.26701136279763 521.9019071030552L304.26701136279763 372.5122557017804ZM343.6198494945731 387.53841324544953L343.6198494945731 387.53841324544953L321.6473638020899 387.53841324544953L321.6473638020899 444.8528865067946L345.33463343089124 444.8528865067946Q363.6450381746273 444.8528865067946 372.2770861252457 437.41246807124475Q380.9091340758641 429.942985501181 380.9091340758641 415.43998237876156L380.9091340758641 415.43998237876156Q380.9091340758641 400.2103758934954 371.7539317039961 393.87439456947243Q362.62779346664195 387.53841324544953 343.6198494945731 387.53841324544953ZM545.0924299446972 521.9019071030552L527.1307948151275 521.9019071030552L508.7331976678498 474.49830371093867L448.8610805692844 474.49830371093867L430.55067582554835 521.9019071030552L412.9959385791729 521.9019071030552L471.44391308655884 371.90190887698924L487.08041745501913 371.90190887698924L545.0924299446972 521.9019071030552ZM454.6739074720578 459.06524828407544L503.5307175898677 459.06524828407544L486.0341086125199 411.95228623709755Q485.4237617877287 410.1212457627239 484.057747465577 405.93601039272716Q482.6626690089114 401.7507750227303 481.238526417732 397.245834173081Q479.8143838265525 392.7408933234317 478.88433152210877 389.9798005446143L478.88433152210877 389.9798005446143Q477.8670868141234 394.1650359146111 476.70452143356874 398.32120715009404Q475.5128919185002 402.44831425106315 474.4084548069732 405.99413866175485Q473.2749535609325 409.5108989379327 472.46115779454425 411.95228623709755L472.46115779454425 411.95228623709755L454.6739074720578 459.06524828407544Z " fill="white" transform="matrix(0.4844716057750867,0,0,0.48447160577508663,0,83.48869477894013)"/><path d="M674.6797235045389 380.7919915018615L712.0989043339313 380.7919915018615Q729.1517059646047 380.7919915018615 740.2777834898308 385.0215173407489Q751.4038610150569 389.22410352461156 756.899550640108 397.84479313253496Q762.3952402651593 406.46548274045836 762.3952402651593 419.82755163273964L762.3952402651593 419.82755163273964Q762.3952402651593 430.79199122781716 758.4081713214947 438.1465170495768Q754.4211023778302 445.47410321631173 747.9825248269124 450.0269049154963Q741.5439472759946 454.5797066146808 734.2433007642845 457.031215221934L734.2433007642845 457.031215221934L772.228214349197 519.261818329131L753.4782144519635 519.261818329131L719.5881284308147 461.47625830101947L690.7896372093456 461.47625830101947L690.7896372093456 519.261818329131L674.6797235045389 519.261818329131L674.6797235045389 380.7919915018615ZM711.1560164080646 394.7197931496628L711.1560164080646 394.7197931496628L690.7896372093456 394.7197931496628L690.7896372093456 447.8447928584907L712.7454560545256 447.8447928584907Q729.7174387201247 447.8447928584907 737.7185162624786 440.94824117215194Q745.7195938048325 434.02474983078844 745.7195938048325 420.5818619734329L745.7195938048325 420.5818619734329Q745.7195938048325 406.46548274045836 737.2336024720329 400.5926379450606Q728.7745507942581 394.7197931496628 711.1560164080646 394.7197931496628ZM792.0288607923959 415.4633275187284L807.7616193268561 415.4633275187284L807.7616193268561 519.261818329131L792.0288607923959 519.261818329131L792.0288607923959 415.4633275187284ZM800.0838176447994 376.6163449730236L800.0838176447994 376.6163449730236Q803.9631279683649 376.6163449730236 806.7648520909399 379.14867254535113Q809.5396365584903 381.6540604626539 809.5396365584903 386.9611725025317L809.5396365584903 386.9611725025317Q809.5396365584903 392.1605259223105 806.7648520909399 394.7197931496628Q803.9631279683649 397.279060377015 800.0838176447994 397.279060377015L800.0838176447994 397.279060377015Q796.0159297360606 397.279060377015 793.2950245785597 394.7197931496628Q790.6010590760836 392.1605259223105 790.6010590760836 386.9611725025317L790.6010590760836 386.9611725025317Q790.6010590760836 381.6540604626539 793.2950245785597 379.14867254535113Q796.0159297360606 376.6163449730236 800.0838176447994 376.6163449730236ZM882.5730413306162 521.1475941808642L882.5730413306162 521.1475941808642Q868.5644207177407 521.1475941808642 857.842438017886 515.3825080055655Q847.1473949730561 509.5904821752419 841.193731212584 497.763973619372Q835.2131277970872 485.9105254084774 835.2131277970872 467.941775506962L835.2131277970872 467.941775506962Q835.2131277970872 449.0840169896296 841.5170070728811 437.0958705036112Q847.8208863486751 425.1077240175927 858.8930845638517 419.3426378422939Q869.9652827790283 413.5775516669952 884.0816620120029 413.5775516669952L884.0816620120029 413.5775516669952Q891.8402826591339 413.5775516669952 899.0870498607945 415.1400516584313Q906.3338170624551 416.7025516498674 910.9943773817387 419.04630163702154L910.9943773817387 419.04630163702154L906.2529980973808 432.2197929441295Q901.511618813023 430.33401709239627 895.3154981573281 428.82539641100965Q889.1193775016332 427.2898360745983 883.7045068416562 427.2898360745983L883.7045068416562 427.2898360745983Q872.9017051767272 427.2898360745983 865.7626965951656 431.9503963938819Q858.5967483585794 436.5840170581407 855.0676535503356 445.5818618364108Q851.5116190870673 454.5797066146808 851.5116190870673 467.726258266764L851.5116190870673 467.726258266764Q851.5116190870673 480.3340168183519 854.9598949302367 489.25104263154765Q858.408170773406 498.14112878971866 865.27778280472 502.82862876402703Q872.1473948360339 507.5161287383354 882.4652827105173 507.5161287383354L882.4652827105173 507.5161287383354Q890.708817148094 507.5161287383354 897.3359722841851 505.7650511617259Q903.9631274202761 504.0139735851165 909.3779980802531 501.64328394293756L909.3779980802531 501.64328394293756L909.3779980802531 515.6519045558131Q904.1517050054495 518.3189304032644 897.7670067645813 519.7467321195767Q891.3823085237129 521.1475941808642 882.5730413306162 521.1475941808642ZM933.8930841527851 371.90190534369054L949.6258426872454 371.90190534369054L949.6258426872454 415.9213016541494Q949.6258426872454 419.7197930126406 949.437265102072 423.5452240261566Q949.2486875168987 427.3975946946974 948.7637737264531 430.6034136426439L948.7637737264531 430.6034136426439L949.8144202724186 430.6034136426439Q953.04717887539 425.1077240175927 958.0040753999459 421.3900516241757Q962.9879115795266 417.64543957573403 969.3187305103454 415.7057844139513Q975.6764890961888 413.7661292521685 982.761618367701 413.7661292521685L982.761618367701 413.7661292521685Q995.2885579542146 413.7661292521685 1003.6667906669152 417.7262585408083Q1012.0450233796156 421.71332748447287 1016.2476095634784 430.0376808871239Q1020.4771354023657 438.38897394479966 1020.4771354023657 451.6432842169819L1020.4771354023657 451.6432842169819L1020.4771354023657 519.261818329131L1004.9329544530789 519.261818329131L1004.9329544530789 452.69393076294756Q1004.9329544530789 439.70901704101294 999.0062303476316 433.27043949009516Q993.106445897209 426.8318619391774 980.8758425159676 426.8318619391774L980.8758425159676 426.8318619391774Q969.3187305103454 426.8318619391774 962.4491184790314 431.22302570821336Q955.5795064477174 435.6411291322741 952.6161443949939 444.15406012009845Q949.6258426872454 452.69393076294756 949.6258426872454 465.0053531092631L949.6258426872454 465.0053531092631L949.6258426872454 519.261818329131L933.8930841527851 519.261818329131L933.8930841527851 371.90190534369054ZM1091.678643632808 413.7661292521685L1091.678643632808 413.7661292521685Q1110.240065944868 413.7661292521685 1119.2379107231382 422.09048265481954Q1128.2357555014082 430.41483605747055 1128.2357555014082 448.706861819283L1128.2357555014082 448.706861819283L1128.2357555014082 519.261818329131L1116.7864021158848 519.261818329131L1113.769160753112 503.9062149650174L1112.9879107573938 503.9062149650174Q1108.6506262984071 509.5904821752419 1103.9092470140495 513.4428528437827Q1099.1678677296914 517.2682838572987 1092.9717470739965 519.2079390190814Q1086.7756264183017 521.1475941808642 1077.7777816400317 521.1475941808642L1077.7777816400317 521.1475941808642Q1068.2950230713159 521.1475941808642 1060.967436904581 517.8340166128187Q1053.6129110828215 514.5204390447731 1049.4103248989586 507.8124649436077Q1045.1807990600714 501.0775511874176 1045.1807990600714 490.75966331293426L1045.1807990600714 490.75966331293426Q1045.1807990600714 475.2154823636474 1057.4922214063868 466.8911289609964Q1069.8036437527026 458.5398359033206 1094.9922212008537 457.7855255626273L1094.9922212008537 457.7855255626273L1112.9070917923195 457.031215221934L1112.9070917923195 450.7003962911153Q1112.9070917923195 437.230568778735 1107.1150659619957 431.8426377737828Q1101.349979786697 426.4547067688307 1090.8435143270403 426.4547067688307L1090.8435143270403 426.4547067688307Q1082.680798854538 426.4547067688307 1075.2993333777536 428.82539641100965Q1067.9178679009692 431.16914639816383 1061.2907127648782 434.4019050011351L1061.2907127648782 434.4019050011351L1056.4685145154458 422.46763782516615Q1063.4728248218835 418.85772405184827 1072.5514885652278 416.32539647952075Q1081.657091963597 413.7661292521685 1091.678643632808 413.7661292521685ZM1112.7185142071462 477.69393062592536L1112.7185142071462 468.13035309213535L1096.9049367076118 468.77690481272964Q1077.4814454347593 469.5312151534229 1069.534247202455 475.13466339857314Q1061.5601093151258 480.71117198869854 1061.5601093151258 490.9482408981076L1061.5601093151258 490.9482408981076Q1061.5601093151258 499.83832705627856 1066.9749799751025 504.09479255019073Q1072.362910980055 508.37819769912767 1081.2799367932507 508.37819769912767L1081.2799367932507 508.37819769912767Q1095.0999798209527 508.37819769912767 1103.9092470140495 500.70039601707094Q1112.7185142071462 493.02259433501416 1112.7185142071462 477.69393062592536L1112.7185142071462 477.69393062592536ZM1197.578427535142 521.1475941808642L1197.578427535142 521.1475941808642Q1177.885539712042 521.1475941808642 1166.3553673614442 507.7047063235087Q1154.8521346658717 494.26181846615316 1154.8521346658717 467.726258266764L1154.8521346658717 467.726258266764Q1154.8521346658717 440.94824117215194 1166.597824256667 427.26289641957356Q1178.3435138474629 413.5775516669952 1197.8478240853897 413.5775516669952L1197.8478240853897 413.5775516669952Q1206.0913585229664 413.5775516669952 1212.2605395236365 415.73272406897604Q1218.4027808692817 417.91483612598165 1222.8747636033922 421.57862920934906Q1227.3198066824775 425.21548263769176 1230.3370480452509 429.84910330195055L1230.3370480452509 429.84910330195055L1231.4685135562909 429.84910330195055Q1231.0913583859442 426.91268090425166 1230.7142032155975 421.79414644954716Q1230.3370480452509 416.7025516498674 1230.3370480452509 413.46979304689614L1230.3370480452509 413.46979304689614L1230.3370480452509 371.90190534369054L1246.069806579711 371.90190534369054L1246.069806579711 519.261818329131L1233.3812290630485 519.261818329131L1231.01053942087 504.49888737556216L1230.3370480452509 504.49888737556216Q1227.4006256475518 509.132508039821 1222.901703258417 512.9040597432875Q1218.4027808692817 516.7025511017787 1212.206660213587 518.9385424688338Q1206.0105395578921 521.1475941808642 1197.578427535142 521.1475941808642ZM1200.029936142395 508.0818614938553L1200.029936142395 508.0818614938553Q1216.7055826027217 508.0818614938553 1223.6290739440856 498.6260425801644Q1230.5256256304242 489.1432840114486 1230.5256256304242 470.47410307928953L1230.5256256304242 470.47410307928953L1230.5256256304242 467.6454393016897Q1230.5256256304242 447.8447928584907 1223.9523498043823 437.230568778735Q1217.3790739783408 426.64328435400404 1200.029936142395 426.64328435400404L1200.029936142395 426.64328435400404Q1185.5364017390739 426.64328435400404 1178.3435138474629 437.7693618792302Q1171.1506259558519 448.8954394044563 1171.1506259558519 468.13035309213535L1171.1506259558519 468.13035309213535Q1171.1506259558519 487.25750815971537 1178.2896345374133 497.656214999273Q1185.4555827739996 508.0818614938553 1200.029936142395 508.0818614938553ZM1349.1948060144946 415.4633275187284L1365.0353231690538 415.4633275187284L1365.0353231690538 519.261818329131L1352.1312284121932 519.261818329131L1349.8682973901136 504.6874649607355L1349.0062284293213 504.6874649607355Q1345.8004094813746 510.0753959656876 1340.6818750266702 513.7661287040798Q1335.5633405719655 517.456861442472 1329.1786423310973 519.3156976391805Q1322.7939440902292 521.1475941808642 1315.5741165435934 521.1475941808642L1315.5741165435934 521.1475941808642Q1303.2626941972776 521.1475941808642 1294.9383407946266 517.1874648922244Q1286.6139873919756 513.2003959485598 1282.3844615530884 504.87604254590883Q1278.1818753692255 496.52474948823306 1278.1818753692255 483.45901680122415L1278.1818753692255 483.45901680122415L1278.1818753692255 415.4633275187284L1294.0762718338342 415.4633275187284L1294.0762718338342 482.3275512901842Q1294.0762718338342 495.3124650121188 1299.9491166292323 501.6971632529871Q1305.82196142463 508.0818614938553 1317.8639872206982 508.0818614938553L1317.8639872206982 508.0818614938553Q1329.4210992263202 508.0818614938553 1336.290711257634 503.7176373798441Q1343.1333836339236 499.38035292085766 1346.1775646517212 490.8943615880581Q1349.1948060144946 482.4083702552585 1349.1948060144946 470.09694790894287L1349.1948060144946 470.09694790894287L1349.1948060144946 415.4633275187284ZM1395.9081678274292 509.4019045900686L1395.9081678274292 509.4019045900686Q1395.9081678274292 502.7747494539775 1399.113986775376 499.99996498642713Q1402.3467453783474 497.19824086385205 1406.980366042606 497.19824086385205L1406.980366042606 497.19824086385205Q1411.802564292038 497.19824086385205 1415.1161418600836 499.99996498642713Q1418.4297194281294 502.7747494539775 1418.4297194281294 509.4019045900686L1418.4297194281294 509.4019045900686Q1418.4297194281294 515.9482407610855 1415.1161418600836 518.9385424688338Q1411.802564292038 521.9019045215575 1406.980366042606 521.9019045215575L1406.980366042606 521.9019045215575Q1402.3467453783474 521.9019045215575 1399.113986775376 518.9385424688338Q1395.9081678274292 515.9482407610855 1395.9081678274292 509.4019045900686ZM1490.789632824636 521.1475941808642L1490.789632824636 521.1475941808642Q1476.7810122117608 521.1475941808642 1466.0859691669307 515.3825080055655Q1455.3639864670758 509.5904821752419 1449.410322706604 497.763973619372Q1443.4297192911072 485.9105254084774 1443.4297192911072 467.941775506962L1443.4297192911072 467.941775506962Q1443.4297192911072 449.0840169896296 1449.733598566901 437.0958705036112Q1456.037477842695 425.1077240175927 1467.1096760578716 419.3426378422939Q1478.2088139280731 413.5775516669952 1492.3251931610475 413.5775516669952L1492.3251931610475 413.5775516669952Q1500.0838138081785 413.5775516669952 1507.330581009839 415.1400516584313Q1514.5773482114996 416.7025516498674 1519.2109688757587 419.04630163702154L1519.2109688757587 419.04630163702154L1514.4695895914006 432.2197929441295Q1509.728210307043 430.33401709239627 1503.532089651348 428.82539641100965Q1497.3359689956528 427.2898360745983 1491.921098335676 427.2898360745983L1491.921098335676 427.2898360745983Q1481.1452363257717 427.2898360745983 1473.9792880891855 431.9503963938819Q1466.840279507624 436.5840170581407 1463.2842450443554 445.5818618364108Q1459.7282105810873 454.5797066146808 1459.7282105810873 467.726258266764L1459.7282105810873 467.726258266764Q1459.7282105810873 480.3340168183519 1463.1764864242564 489.25104263154765Q1466.6517019224507 498.14112878971866 1473.5213139537645 502.82862876402703Q1480.3909259850789 507.5161287383354 1490.7088138595618 507.5161287383354L1490.7088138595618 507.5161287383354Q1498.9523482971385 507.5161287383354 1505.5795034332295 505.7650511617259Q1512.206658569321 504.0139735851165 1517.594589574273 501.64328394293756L1517.594589574273 501.64328394293756L1517.594589574273 515.6519045558131Q1512.3952361544943 518.3189304032644 1506.0105379136257 519.7467321195767Q1499.5989000177328 521.1475941808642 1490.789632824636 521.1475941808642ZM1631.6301492940843 467.160525511244L1631.6301492940843 467.160525511244Q1631.6301492940843 479.95686164800526 1628.316571726039 490.005352972241Q1625.0029941579933 500.0269046414519 1618.752994192249 506.9503959828154Q1612.5029942265046 513.8738873241789 1603.6398477233583 517.5107407525215Q1594.776701220212 521.1475941808642 1583.623684039961 521.1475941808642L1583.623684039961 521.1475941808642Q1573.1980375453786 521.1475941808642 1564.5234686274057 517.5107407525215Q1555.8758393644575 513.8738873241789 1549.5719600886637 506.9503959828154Q1543.2680808128698 500.0269046414519 1539.8198049697003 490.005352972241Q1536.3445894715064 479.95686164800526 1536.3445894715064 467.160525511244L1536.3445894715064 467.160525511244Q1536.3445894715064 450.1346635355953 1542.1366153018298 438.1465170495768Q1547.9017014771289 426.1583705635584 1558.650623832008 419.8544912877644Q1569.3995461868876 413.5775516669952 1584.2702357605554 413.5775516669952L1584.2702357605554 413.5775516669952Q1598.4943736136288 413.5775516669952 1609.1355373484093 419.9083705978139Q1619.8036407382147 426.2661291836574 1625.703425188637 438.22733601465114Q1631.6301492940843 450.21548250066957 1631.6301492940843 467.160525511244ZM1552.6430807614865 467.160525511244L1552.6430807614865 467.160525511244Q1552.6430807614865 479.66052544273293 1555.9566583295318 488.8469478061763Q1559.2702358975775 498.0333701696196 1566.193727238941 503.0710856592499Q1573.0902789252796 508.0818614938553 1584.0008392103077 508.0818614938553L1584.0008392103077 508.0818614938553Q1594.776701220212 508.0818614938553 1601.754071871625 503.0710856592499Q1608.7045028680132 498.0333701696196 1612.0180804360589 488.8469478061763Q1615.3316580041046 479.66052544273293 1615.3316580041046 467.160525511244L1615.3316580041046 467.160525511244Q1615.3316580041046 454.7682841998541 1612.0180804360589 445.7165601115346Q1608.7045028680132 436.664836023215 1601.8079511816745 431.7618188087086Q1594.8844598403111 426.8318619391774 1583.8930805902087 426.8318619391774L1583.8930805902087 426.8318619391774Q1567.7023479203276 426.8318619391774 1560.1592445133947 437.52690498400733Q1552.6430807614865 448.2219480288373 1552.6430807614865 467.160525511244ZM1771.5277778376662 413.5775516669952L1771.5277778376662 413.5775516669952Q1788.661398433414 413.5775516669952 1797.3629070064117 422.5215171352157Q1806.091355234434 431.4654826034362 1806.091355234434 451.2661290466352L1806.091355234434 451.2661290466352L1806.091355234434 519.261818329131L1790.5471742851473 519.261818329131L1790.5471742851473 452.02043938732857Q1790.5471742851473 439.41268083574056 1785.1053639701458 433.13574121497135Q1779.663553655144 426.8318619391774 1768.9685106103138 426.8318619391774L1768.9685106103138 426.8318619391774Q1753.9092434514728 426.8318619391774 1747.0935107302084 435.53337051217505Q1740.2508383539193 444.2618187401975 1740.2508383539193 461.2068617507719L1740.2508383539193 461.2068617507719L1740.2508383539193 519.261818329131L1724.6258384395578 519.261818329131L1724.6258384395578 452.02043938732857Q1724.6258384395578 443.5883273645785 1722.2282091423544 438.01181877445305Q1719.8036401901259 432.40837052930283 1715.035321250743 429.60664640672775Q1710.2400626563358 426.8318619391774 1702.9394161446257 426.8318619391774L1702.9394161446257 426.8318619391774Q1692.6215282701423 426.8318619391774 1686.371528304398 431.08832743308955Q1680.1215283386537 435.3447929270017 1677.3198042160784 443.72302563970226Q1674.5450197485284 452.10125835240285 1674.5450197485284 464.33186173364413L1674.5450197485284 464.33186173364413L1674.5450197485284 519.261818329131L1658.8122612140678 519.261818329131L1658.8122612140678 415.4633275187284L1671.5008387307303 415.4633275187284L1673.8715283729093 430.14543950722293L1674.7335973337013 430.14543950722293Q1677.8585973165737 424.73056884724605 1682.573036945907 421.0398361088539Q1687.3144162302647 417.34910337046165 1693.1872610256623 415.4633275187284Q1699.06010582106 413.5775516669952 1705.6872609571515 413.5775516669952L1705.6872609571515 413.5775516669952Q1717.5407091680459 413.5775516669952 1725.5417867103997 417.9687154360312Q1733.5428642527536 422.38681886009186 1737.125838371047 431.35772398333717L1737.125838371047 431.35772398333717L1737.9879073318393 431.35772398333717Q1743.1064417865437 422.38681886009186 1751.9965279447147 417.9687154360312Q1760.9135537579104 413.5775516669952 1771.5277778376662 413.5775516669952Z " fill="#396df2" transform="matrix(0.4844716057750867,0,0,0.48447160577508663,0,83.48869477894013)"/></g></svg>